<svg id="Capa_1" data-name="Capa 1" xmlns="http://www.w3.org/2000/svg" viewBox="0 0 160 18">
  <defs>
    <style>
      .cls-1 {
        fill: #4cbf8c;
      }

      .cls-2 {
        fill: #fff;
      }
    </style>
  </defs>
  <g>
    <path class="cls-1" d="M39.68,5.09,37.91,6.26a4.32,4.32,0,0,0-3.65-1.88,4.51,4.51,0,0,0-4.63,4.75,4.51,4.51,0,0,0,4.63,4.76A4.31,4.31,0,0,0,37.9,12l1.72,1.26a6.36,6.36,0,0,1-5.36,2.64,6.57,6.57,0,0,1-6.85-6.78,6.58,6.58,0,0,1,6.85-6.78A6.2,6.2,0,0,1,39.68,5.09Z"/>
    <path class="cls-1" d="M49.68,11.2a4.82,4.82,0,0,1-9.63,0,4.82,4.82,0,0,1,9.63,0Zm-7.62,0a2.81,2.81,0,1,0,5.61,0,2.81,2.81,0,1,0-5.61,0Z"/>
    <path class="cls-1" d="M65.48,10.26v5.63h-2v-5c0-1.51-.78-2.35-2.09-2.35a2.21,2.21,0,0,0-2.31,2.37v5h-2v-5c0-1.51-.77-2.35-2.08-2.35a2.22,2.22,0,0,0-2.32,2.37v5h-2V6.94h2V8A3.15,3.15,0,0,1,55.48,6.7a3.51,3.51,0,0,1,3.09,1.6,3.65,3.65,0,0,1,3.27-1.6A3.46,3.46,0,0,1,65.48,10.26Z"/>
    <path class="cls-1" d="M75.34,11.88a4.15,4.15,0,0,1-8.29,0V6.72h2v5c0,1.73,1,2.36,2.18,2.36s2.19-.63,2.19-2.36v-5h2Z"/>
    <path class="cls-1" d="M85.33,10.27V15.9h-2v-5c0-1.5-.78-2.35-2.09-2.35A2.22,2.22,0,0,0,79,10.94v5H77V7h2V8a3.19,3.19,0,0,1,2.74-1.33A3.46,3.46,0,0,1,85.33,10.27Z"/>
    <path class="cls-1" d="M89.34,3.87A1.35,1.35,0,0,1,88,5.23,1.33,1.33,0,0,1,86.6,3.87,1.34,1.34,0,0,1,88,2.49,1.36,1.36,0,0,1,89.34,3.87Zm-.39,12H87V7h2Z"/>
    <path class="cls-1" d="M97.35,7.94V2.35h2V16h-2V14.73A3.38,3.38,0,0,1,94.54,16a4.49,4.49,0,0,1-4.48-4.71,4.49,4.49,0,0,1,4.48-4.71A3.42,3.42,0,0,1,97.35,7.94Zm-5.28,3.39a2.71,2.71,0,1,0,5.4,0,2.71,2.71,0,1,0-5.4,0Z"/>
    <path class="cls-1" d="M109.65,15.9h-2V14.6a3.4,3.4,0,0,1-2.81,1.3,4.49,4.49,0,0,1-4.48-4.71,4.49,4.49,0,0,1,4.48-4.7A3.41,3.41,0,0,1,107.7,7.8V6.72h2Zm-7.23-4.7a2.7,2.7,0,1,0,5.4,0,2.71,2.71,0,1,0-5.4,0Z"/>
    <path class="cls-1" d="M118.05,7.94V2.35h2V16h-2V14.73A3.38,3.38,0,0,1,115.24,16a4.49,4.49,0,0,1-4.48-4.71,4.5,4.5,0,0,1,4.48-4.71A3.42,3.42,0,0,1,118.05,7.94Zm-5.28,3.39a2.71,2.71,0,1,0,5.4,0,2.71,2.71,0,1,0-5.4,0Z"/>
    <polygon class="cls-1" points="130.98 9.98 124.06 9.98 124.06 15.9 121.92 15.9 121.92 2.35 131.41 2.35 131.41 4.39 124.06 4.39 124.06 7.95 130.98 7.95 130.98 9.98"/>
    <path class="cls-1" d="M140.38,11.19c0,.25,0,.5,0,.72h-6.61a2.52,2.52,0,0,0,2.66,2.28,4.27,4.27,0,0,0,2.59-.94l1,1.39a5.36,5.36,0,0,1-3.68,1.26,4.41,4.41,0,0,1-4.58-4.7,4.36,4.36,0,0,1,4.46-4.71C138.65,6.49,140.37,8.39,140.38,11.19Zm-6.64-.76h4.64a2.26,2.26,0,0,0-2.27-2.21A2.32,2.32,0,0,0,133.74,10.43Z"/>
    <rect class="cls-1" x="141.49" y="2.37" width="1.96" height="13.5"/>
    <path class="cls-1" d="M147.56,3.65a1.37,1.37,0,1,1-2.74,0,1.37,1.37,0,1,1,2.74,0Zm-.39,12.24h-2V6.79h2Z"/>
    <polygon class="cls-1" points="155.95 8.36 151.07 14.11 156.05 14.11 156.05 15.89 148.47 15.89 148.47 14.47 153.44 8.71 148.62 8.71 148.62 6.94 155.95 6.94 155.95 8.36"/>
    <path class="cls-1" d="M20.86,17.9h-16A.89.89,0,0,1,4,17.35.81.81,0,0,1,4,17V1A.88.88,0,0,1,4.39.23.91.91,0,0,1,4.85.1h16a.9.9,0,0,1,.63.26.93.93,0,0,1,.27.64V17a.93.93,0,0,1-.27.64A.88.88,0,0,1,20.86,17.9Z"/>
    <path class="cls-2" d="M12.84,4.6l4.57,3.07-.25-1.78L12.84,2.5,8.61,5.93,8.36,7.7Z"/>
    <path class="cls-2" d="M10.25,6.67,8.33,8,8,10l2-1.07Z"/>
    <path class="cls-2" d="M12.84,7.44,17.75,10l-.3-2-4.61-3Z"/>
    <path class="cls-2" d="M17.91,12.24a5,5,0,0,0-.79.11,6.59,6.59,0,0,0-1.23-1l-.18-2.12L12.84,7.82,8,10.3l-.27,1.94A4.25,4.25,0,0,0,4,14.79,4.51,4.51,0,0,1,8.38,13.1a6.29,6.29,0,0,1,4.46-1.81,6.43,6.43,0,0,1,4.49,1.81,4.51,4.51,0,0,1,4.43,1.69A4.25,4.25,0,0,0,17.91,12.24Z"/>
  </g>
</svg>
